<svg width="99" height="99" viewBox="0 0 99 99" fill="none" xmlns="http://www.w3.org/2000/svg">
<path d="M0 15.5C0 11.084 3.584 7.5 8 7.5H91C95.416 7.5 99 11.084 99 15.5C99 19.916 95.416 23.5 91 23.5H8C3.584 23.5 0 19.916 0 15.5ZM91 41.5H8C3.584 41.5 0 45.084 0 49.5C0 53.916 3.584 57.5 8 57.5H91C95.416 57.5 99 53.916 99 49.5C99 45.084 95.42 41.5 91 41.5ZM91 75.5H8C3.584 75.5 0 79.084 0 83.5C0 87.916 3.584 91.5 8 91.5H91C95.416 91.5 99 87.916 99 83.5C99 79.084 95.42 75.5 91 75.5Z" fill="#E3E3E3"/>
</svg>
